<svg width="24" height="24" viewBox="0 0 24 24" fill="none" xmlns="http://www.w3.org/2000/svg">
<path fill-rule="evenodd" clip-rule="evenodd" d="M16.7357 17.0257L18.8584 19.1468C19.0537 19.3421 19.0537 19.6587 18.8584 19.8539C18.6632 20.0492 18.3466 20.0492 18.1513 19.8539L15.9294 17.6336C14.744 18.4283 13.2758 18.996 11.5 18.996C5.707 18.996 3.187 12.955 3.082 12.697L3 12.496L3.082 12.294C3.14702 12.1348 4.13814 9.75764 6.2591 7.97051L4.14057 5.85355C3.94531 5.65829 3.94531 5.34171 4.14057 5.14645C4.33583 4.95118 4.65242 4.95118 4.84768 5.14645L7.06496 7.36208C8.25134 6.56542 9.7214 5.99596 11.5 5.99596C17.293 5.99596 19.813 12.037 19.918 12.294L20 12.496L19.918 12.697C19.8529 12.8569 18.8603 15.238 16.7357 17.0257ZM6.99634 8.7072C5.31659 10.0815 4.37161 11.8947 4.089 12.495C4.567 13.506 6.932 17.96 11.5 17.96C12.9427 17.96 14.1646 17.5182 15.1766 16.8814L13.4156 15.1217C12.8784 15.5143 12.2163 15.746 11.5 15.746C9.70507 15.746 8.25 14.2909 8.25 12.496C8.25 11.7806 8.48115 11.1191 8.87285 10.5823L6.99634 8.7072ZM7.8176 8.11417L9.57896 9.87422C10.1171 9.47925 10.7813 9.24596 11.5 9.24596C13.2949 9.24596 14.75 10.701 14.75 12.496C14.75 13.2138 14.5173 13.8773 14.1232 14.4151L15.9984 16.2889C17.6815 14.914 18.6281 13.0974 18.911 12.496C18.433 11.486 16.068 7.03196 11.5 7.03196C10.0545 7.03196 8.8307 7.47541 7.8176 8.11417ZM9.59276 11.3017C9.37558 11.6478 9.25 12.0572 9.25 12.496C9.25 13.7386 10.2574 14.746 11.5 14.746C11.9393 14.746 12.3493 14.62 12.6957 14.4023L9.59276 11.3017ZM10.2985 10.5933L13.4036 13.696C13.623 13.3487 13.75 12.9372 13.75 12.496C13.75 11.2533 12.7426 10.246 11.5 10.246C11.0582 10.246 10.6462 10.3733 10.2985 10.5933Z" fill="#000624"/>
</svg>
