<svg xmlns="http://www.w3.org/2000/svg" xmlns:xlink="http://www.w3.org/1999/xlink" viewBox="0,0,256,256" width="96px" height="96px" fill-rule="nonzero"><defs><linearGradient x1="32" y1="25.213" x2="32" y2="36.722" gradientUnits="userSpaceOnUse" id="color-1"><stop offset="0" stop-color="#ff9f70"></stop><stop offset="1" stop-color="#285db6"></stop></linearGradient><linearGradient x1="32" y1="7.426" x2="32" y2="53.44" gradientUnits="userSpaceOnUse" id="color-2"><stop offset="0" stop-color="#ff5300"></stop><stop offset="1" stop-color="#45145a"></stop></linearGradient></defs><g fill="none" fill-rule="nonzero" stroke="none" stroke-width="1" stroke-linecap="butt" stroke-linejoin="miter" stroke-miterlimit="10" stroke-dasharray="" stroke-dashoffset="0" font-family="none" font-weight="none" font-size="none" text-anchor="none" style="mix-blend-mode: normal"><g transform="scale(4,4)"><circle cx="32" cy="32" r="6" fill="url(#color-1)"></circle><path d="M58,32c0,-3.758 -4.243,-7.017 -10.853,-8.992c0.221,-1.031 0.407,-2.045 0.524,-3.015c0.657,-5.483 -0.483,-9.323 -3.211,-10.813c-2.729,-1.489 -6.574,-0.372 -10.831,3.146c-0.544,0.449 -1.087,0.938 -1.629,1.45c-0.542,-0.513 -1.085,-1.001 -1.629,-1.45c-4.257,-3.518 -8.104,-4.634 -10.831,-3.146c-2.728,1.489 -3.868,5.329 -3.211,10.813c0.116,0.971 0.303,1.984 0.524,3.015c-6.61,1.975 -10.853,5.234 -10.853,8.992c0,3.758 4.243,7.017 10.853,8.992c-0.221,1.031 -0.407,2.045 -0.524,3.015c-0.657,5.483 0.483,9.323 3.211,10.813c0.789,0.431 1.67,0.643 2.628,0.643c2.357,0 5.177,-1.287 8.203,-3.788c0.544,-0.449 1.087,-0.938 1.629,-1.45c0.542,0.513 1.085,1.001 1.629,1.45c3.026,2.501 5.846,3.788 8.203,3.788c0.958,0 1.84,-0.213 2.628,-0.643c2.728,-1.489 3.868,-5.329 3.211,-10.813c-0.116,-0.971 -0.303,-1.984 -0.524,-3.015c6.61,-1.975 10.853,-5.234 10.853,-8.992zM34.902,13.866c3.53,-2.917 6.665,-3.987 8.599,-2.931c1.934,1.055 2.729,4.27 2.184,8.818c-0.105,0.879 -0.273,1.796 -0.469,2.729c-2.117,-0.519 -4.43,-0.915 -6.892,-1.166c-1.564,-2.275 -3.215,-4.351 -4.908,-6.132c0.494,-0.466 0.99,-0.908 1.486,-1.318zM39.899,36.313c-0.853,1.562 -1.76,3.055 -2.702,4.474c-1.651,0.138 -3.386,0.213 -5.197,0.213c-1.811,0 -3.546,-0.075 -5.198,-0.213c-0.941,-1.42 -1.849,-2.912 -2.702,-4.474c-0.784,-1.435 -1.499,-2.878 -2.142,-4.313c0.643,-1.434 1.358,-2.877 2.142,-4.313c0.853,-1.562 1.76,-3.055 2.702,-4.474c1.652,-0.138 3.387,-0.213 5.198,-0.213c1.811,0 3.546,0.075 5.198,0.213c0.941,1.42 1.849,2.912 2.702,4.474c0.784,1.435 1.499,2.878 2.142,4.313c-0.643,1.434 -1.359,2.877 -2.143,4.313zM43.078,34.487c0.68,1.739 1.238,3.444 1.676,5.096c-1.544,0.376 -3.21,0.694 -5.009,0.929c0.657,-1.05 1.3,-2.124 1.909,-3.241c0.507,-0.925 0.975,-1.855 1.424,-2.784zM32,47.403c-1.272,-1.341 -2.522,-2.863 -3.729,-4.513c1.216,0.071 2.459,0.11 3.729,0.11c1.27,0 2.513,-0.039 3.729,-0.11c-1.207,1.65 -2.457,3.172 -3.729,4.513zM24.254,40.512c-1.799,-0.235 -3.465,-0.553 -5.009,-0.929c0.438,-1.652 0.996,-3.358 1.676,-5.096c0.45,0.93 0.918,1.859 1.423,2.785c0.61,1.116 1.253,2.19 1.91,3.24zM20.922,29.513c-0.68,-1.739 -1.238,-3.445 -1.676,-5.096c1.544,-0.376 3.21,-0.694 5.009,-0.929c-0.657,1.05 -1.3,2.124 -1.909,3.241c-0.507,0.925 -0.975,1.855 -1.424,2.784zM32,16.597c1.272,1.341 2.522,2.863 3.729,4.513c-1.216,-0.071 -2.459,-0.11 -3.729,-0.11c-1.27,0 -2.513,0.039 -3.729,0.11c1.207,-1.65 2.457,-3.172 3.729,-4.513zM41.655,26.729c-0.609,-1.116 -1.252,-2.19 -1.909,-3.241c1.799,0.235 3.465,0.553 5.009,0.929c-0.438,1.652 -0.996,3.358 -1.676,5.096c-0.45,-0.929 -0.918,-1.859 -1.424,-2.784zM18.315,19.754c-0.546,-4.549 0.25,-7.764 2.184,-8.818c0.488,-0.267 1.053,-0.397 1.681,-0.397c1.86,0 4.278,1.147 6.918,3.328c0.496,0.41 0.993,0.852 1.488,1.319c-1.693,1.781 -3.345,3.856 -4.908,6.132c-2.463,0.251 -4.776,0.648 -6.892,1.166c-0.198,-0.934 -0.365,-1.851 -0.471,-2.73zM8,32c0,-2.6 3.47,-5.303 9.317,-7.06c0.606,2.279 1.437,4.654 2.471,7.06c-1.034,2.407 -1.865,4.782 -2.471,7.06c-5.847,-1.757 -9.317,-4.46 -9.317,-7.06zM29.098,50.134c-3.53,2.917 -6.662,3.989 -8.599,2.931c-1.934,-1.055 -2.729,-4.27 -2.184,-8.818c0.105,-0.879 0.273,-1.796 0.469,-2.729c2.117,0.519 4.43,0.915 6.892,1.166c1.564,2.275 3.215,4.351 4.908,6.132c-0.494,0.466 -0.99,0.908 -1.486,1.318zM45.685,44.246c0.546,4.549 -0.25,7.764 -2.184,8.818c-1.934,1.059 -5.068,-0.014 -8.599,-2.931c-0.496,-0.41 -0.993,-0.852 -1.488,-1.319c1.693,-1.781 3.345,-3.856 4.908,-6.132c2.463,-0.251 4.776,-0.648 6.892,-1.166c0.198,0.934 0.365,1.851 0.471,2.73zM46.683,39.06c-0.606,-2.279 -1.437,-4.654 -2.471,-7.06c1.034,-2.407 1.865,-4.782 2.471,-7.06c5.847,1.757 9.317,4.46 9.317,7.06c0,2.6 -3.47,5.303 -9.317,7.06z" fill="url(#color-2)"></path></g></g></svg>